<svg xmlns="http://www.w3.org/2000/svg" xmlns:xlink="http://www.w3.org/1999/xlink" width="120" zoomAndPan="magnify" viewBox="0 0 90 30.000001" height="40" preserveAspectRatio="xMidYMid meet" version="1.0"><defs><g/></defs><g fill="#000000" fill-opacity="1"><g transform="translate(4.623289, 16.152411)"><g><path d="M 5.265625 -8.09375 L 5.265625 -6.46875 L 2.4375 -6.46875 L 2.4375 -4.859375 L 5.046875 -4.859375 L 5.046875 -3.25 L 2.4375 -3.25 L 2.4375 0 L 0.59375 0 L 0.59375 -8.09375 Z M 5.265625 -8.09375 "/></g></g></g><g fill="#000000" fill-opacity="1"><g transform="translate(10.189951, 16.152411)"><g><path d="M 0.921875 -0.625 C 0.453125 -1.132812 0.21875 -1.757812 0.21875 -2.5 C 0.21875 -3.25 0.453125 -3.882812 0.921875 -4.40625 C 1.398438 -4.925781 2.003906 -5.1875 2.734375 -5.1875 C 3.398438 -5.1875 3.945312 -4.972656 4.375 -4.546875 L 4.375 -5.03125 L 6.109375 -5.03125 L 6.109375 0 L 4.390625 0 L 4.390625 -0.5625 L 4.375 -0.5625 C 3.945312 -0.09375 3.398438 0.140625 2.734375 0.140625 C 2.003906 0.140625 1.398438 -0.113281 0.921875 -0.625 Z M 2.40625 -3.359375 C 2.1875 -3.140625 2.078125 -2.851562 2.078125 -2.5 C 2.078125 -2.15625 2.179688 -1.875 2.390625 -1.65625 C 2.609375 -1.4375 2.894531 -1.328125 3.25 -1.328125 C 3.59375 -1.328125 3.875 -1.4375 4.09375 -1.65625 C 4.3125 -1.882812 4.421875 -2.171875 4.421875 -2.515625 C 4.421875 -2.859375 4.304688 -3.140625 4.078125 -3.359375 C 3.847656 -3.585938 3.570312 -3.703125 3.25 -3.703125 C 2.914062 -3.703125 2.632812 -3.585938 2.40625 -3.359375 Z M 2.40625 -3.359375 "/></g></g></g><g fill="#000000" fill-opacity="1"><g transform="translate(16.895473, 16.152411)"><g><path d="M 3.265625 -3.765625 C 2.941406 -3.765625 2.660156 -3.640625 2.421875 -3.390625 C 2.191406 -3.148438 2.078125 -2.859375 2.078125 -2.515625 C 2.078125 -2.171875 2.191406 -1.878906 2.421875 -1.640625 C 2.660156 -1.398438 2.941406 -1.28125 3.265625 -1.28125 C 3.421875 -1.28125 3.566406 -1.296875 3.703125 -1.328125 C 3.847656 -1.367188 3.953125 -1.410156 4.015625 -1.453125 L 4.109375 -1.515625 L 4.703125 -0.296875 C 4.648438 -0.265625 4.582031 -0.222656 4.5 -0.171875 C 4.425781 -0.128906 4.242188 -0.0664062 3.953125 0.015625 C 3.660156 0.0976562 3.347656 0.140625 3.015625 0.140625 C 2.273438 0.140625 1.625 -0.113281 1.0625 -0.625 C 0.5 -1.144531 0.21875 -1.769531 0.21875 -2.5 C 0.21875 -3.226562 0.5 -3.859375 1.0625 -4.390625 C 1.625 -4.921875 2.273438 -5.1875 3.015625 -5.1875 C 3.347656 -5.1875 3.65625 -5.144531 3.9375 -5.0625 C 4.21875 -4.988281 4.414062 -4.910156 4.53125 -4.828125 L 4.703125 -4.703125 L 4.109375 -3.515625 C 3.890625 -3.679688 3.609375 -3.765625 3.265625 -3.765625 Z M 3.265625 -3.765625 "/></g></g></g><g fill="#000000" fill-opacity="1"><g transform="translate(21.715989, 16.152411)"><g><path d="M 0.75 -7.828125 C 0.957031 -8.035156 1.203125 -8.140625 1.484375 -8.140625 C 1.765625 -8.140625 2.003906 -8.035156 2.203125 -7.828125 C 2.410156 -7.628906 2.515625 -7.390625 2.515625 -7.109375 C 2.515625 -6.828125 2.410156 -6.582031 2.203125 -6.375 C 2.003906 -6.175781 1.765625 -6.078125 1.484375 -6.078125 C 1.203125 -6.078125 0.957031 -6.175781 0.75 -6.375 C 0.550781 -6.582031 0.453125 -6.828125 0.453125 -7.109375 C 0.453125 -7.390625 0.550781 -7.628906 0.75 -7.828125 Z M 0.59375 -5.03125 L 0.59375 0 L 2.328125 0 L 2.328125 -5.03125 Z M 0.59375 -5.03125 "/></g></g></g><g fill="#000000" fill-opacity="1"><g transform="translate(24.680947, 16.152411)"><g><path d="M 0.59375 0 L 0.59375 -8.4375 L 2.328125 -8.4375 L 2.328125 0 Z M 0.59375 0 "/></g></g></g><g fill="#000000" fill-opacity="1"><g transform="translate(27.596818, 16.152411)"><g><path d="M 0.75 -7.828125 C 0.957031 -8.035156 1.203125 -8.140625 1.484375 -8.140625 C 1.765625 -8.140625 2.003906 -8.035156 2.203125 -7.828125 C 2.410156 -7.628906 2.515625 -7.390625 2.515625 -7.109375 C 2.515625 -6.828125 2.410156 -6.582031 2.203125 -6.375 C 2.003906 -6.175781 1.765625 -6.078125 1.484375 -6.078125 C 1.203125 -6.078125 0.957031 -6.175781 0.75 -6.375 C 0.550781 -6.582031 0.453125 -6.828125 0.453125 -7.109375 C 0.453125 -7.390625 0.550781 -7.628906 0.75 -7.828125 Z M 0.59375 -5.03125 L 0.59375 0 L 2.328125 0 L 2.328125 -5.03125 Z M 0.59375 -5.03125 "/></g></g></g><g fill="#000000" fill-opacity="1"><g transform="translate(30.561776, 16.152411)"><g><path d="M 0.890625 -5.03125 L 0.890625 -6.90625 L 2.625 -6.90625 L 2.625 -5.03125 L 3.6875 -5.03125 L 3.6875 -3.703125 L 2.625 -3.703125 L 2.625 -2.109375 C 2.625 -1.640625 2.753906 -1.40625 3.015625 -1.40625 C 3.078125 -1.40625 3.144531 -1.414062 3.21875 -1.4375 C 3.289062 -1.46875 3.347656 -1.5 3.390625 -1.53125 L 3.4375 -1.5625 L 3.875 -0.171875 C 3.5 0.0351562 3.070312 0.140625 2.59375 0.140625 C 2.269531 0.140625 1.988281 0.0820312 1.75 -0.03125 C 1.519531 -0.144531 1.34375 -0.296875 1.21875 -0.484375 C 1.101562 -0.679688 1.019531 -0.882812 0.96875 -1.09375 C 0.914062 -1.300781 0.890625 -1.53125 0.890625 -1.78125 L 0.890625 -3.703125 L 0.15625 -3.703125 L 0.15625 -5.03125 Z M 0.890625 -5.03125 "/></g></g></g><g fill="#000000" fill-opacity="1"><g transform="translate(34.439788, 16.152411)"><g><path d="M 4.40625 -5.03125 L 6.40625 -5.03125 L 2.453125 2.546875 L 0.453125 2.546875 L 2.1875 -0.78125 L -0.203125 -5.03125 L 1.8125 -5.03125 L 3.203125 -2.453125 Z M 4.40625 -5.03125 "/></g></g></g><g fill="#000000" fill-opacity="1"><g transform="translate(40.654422, 16.152411)"><g/></g></g><g fill="#000000" fill-opacity="1"><g transform="translate(43.334661, 16.152411)"><g><path d="M 0.59375 -8.09375 L 3.09375 -8.09375 C 3.851562 -8.09375 4.457031 -7.929688 4.90625 -7.609375 C 5.363281 -7.285156 5.59375 -6.757812 5.59375 -6.03125 C 5.59375 -5.21875 5.253906 -4.640625 4.578125 -4.296875 C 5.734375 -4.097656 6.3125 -3.414062 6.3125 -2.25 C 6.3125 -1.570312 6.070312 -1.023438 5.59375 -0.609375 C 5.125 -0.203125 4.476562 0 3.65625 0 L 0.59375 0 Z M 2.4375 -4.921875 L 2.578125 -4.921875 C 2.992188 -4.921875 3.300781 -4.992188 3.5 -5.140625 C 3.707031 -5.285156 3.8125 -5.519531 3.8125 -5.84375 C 3.8125 -6.394531 3.398438 -6.671875 2.578125 -6.671875 L 2.4375 -6.671875 Z M 2.4375 -1.421875 L 3.015625 -1.421875 C 3.910156 -1.421875 4.359375 -1.722656 4.359375 -2.328125 C 4.359375 -2.679688 4.242188 -2.9375 4.015625 -3.09375 C 3.796875 -3.257812 3.460938 -3.34375 3.015625 -3.34375 L 2.4375 -3.34375 Z M 2.4375 -1.421875 "/></g></g></g><g fill="#000000" fill-opacity="1"><g transform="translate(49.873275, 16.152411)"><g><path d="M 1.0625 -0.59375 C 0.5 -1.09375 0.21875 -1.734375 0.21875 -2.515625 C 0.21875 -3.296875 0.507812 -3.9375 1.09375 -4.4375 C 1.675781 -4.9375 2.394531 -5.1875 3.25 -5.1875 C 4.101562 -5.1875 4.816406 -4.929688 5.390625 -4.421875 C 5.972656 -3.921875 6.265625 -3.285156 6.265625 -2.515625 C 6.265625 -1.742188 5.976562 -1.109375 5.40625 -0.609375 C 4.84375 -0.109375 4.125 0.140625 3.25 0.140625 C 2.351562 0.140625 1.625 -0.101562 1.0625 -0.59375 Z M 2.40625 -3.359375 C 2.1875 -3.140625 2.078125 -2.851562 2.078125 -2.5 C 2.078125 -2.15625 2.179688 -1.875 2.390625 -1.65625 C 2.609375 -1.4375 2.894531 -1.328125 3.25 -1.328125 C 3.59375 -1.328125 3.875 -1.4375 4.09375 -1.65625 C 4.3125 -1.882812 4.421875 -2.171875 4.421875 -2.515625 C 4.421875 -2.859375 4.304688 -3.140625 4.078125 -3.359375 C 3.847656 -3.585938 3.570312 -3.703125 3.25 -3.703125 C 2.914062 -3.703125 2.632812 -3.585938 2.40625 -3.359375 Z M 2.40625 -3.359375 "/></g></g></g><g fill="#000000" fill-opacity="1"><g transform="translate(56.362803, 16.152411)"><g><path d="M 1.0625 -0.59375 C 0.5 -1.09375 0.21875 -1.734375 0.21875 -2.515625 C 0.21875 -3.296875 0.507812 -3.9375 1.09375 -4.4375 C 1.675781 -4.9375 2.394531 -5.1875 3.25 -5.1875 C 4.101562 -5.1875 4.816406 -4.929688 5.390625 -4.421875 C 5.972656 -3.921875 6.265625 -3.285156 6.265625 -2.515625 C 6.265625 -1.742188 5.976562 -1.109375 5.40625 -0.609375 C 4.84375 -0.109375 4.125 0.140625 3.25 0.140625 C 2.351562 0.140625 1.625 -0.101562 1.0625 -0.59375 Z M 2.40625 -3.359375 C 2.1875 -3.140625 2.078125 -2.851562 2.078125 -2.5 C 2.078125 -2.15625 2.179688 -1.875 2.390625 -1.65625 C 2.609375 -1.4375 2.894531 -1.328125 3.25 -1.328125 C 3.59375 -1.328125 3.875 -1.4375 4.09375 -1.65625 C 4.3125 -1.882812 4.421875 -2.171875 4.421875 -2.515625 C 4.421875 -2.859375 4.304688 -3.140625 4.078125 -3.359375 C 3.847656 -3.585938 3.570312 -3.703125 3.25 -3.703125 C 2.914062 -3.703125 2.632812 -3.585938 2.40625 -3.359375 Z M 2.40625 -3.359375 "/></g></g></g><g fill="#000000" fill-opacity="1"><g transform="translate(62.852331, 16.152411)"><g><path d="M 6.34375 -5.03125 L 3.9375 -2.625 L 6.578125 0 L 4.34375 0 L 2.328125 -2.015625 L 2.328125 0 L 0.59375 0 L 0.59375 -8.4375 L 2.328125 -8.4375 L 2.328125 -3.28125 L 4.078125 -5.03125 Z M 6.34375 -5.03125 "/></g></g></g><g fill="#000000" fill-opacity="1"><g transform="translate(69.194599, 16.152411)"><g><path d="M 0.75 -7.828125 C 0.957031 -8.035156 1.203125 -8.140625 1.484375 -8.140625 C 1.765625 -8.140625 2.003906 -8.035156 2.203125 -7.828125 C 2.410156 -7.628906 2.515625 -7.390625 2.515625 -7.109375 C 2.515625 -6.828125 2.410156 -6.582031 2.203125 -6.375 C 2.003906 -6.175781 1.765625 -6.078125 1.484375 -6.078125 C 1.203125 -6.078125 0.957031 -6.175781 0.75 -6.375 C 0.550781 -6.582031 0.453125 -6.828125 0.453125 -7.109375 C 0.453125 -7.390625 0.550781 -7.628906 0.75 -7.828125 Z M 0.59375 -5.03125 L 0.59375 0 L 2.328125 0 L 2.328125 -5.03125 Z M 0.59375 -5.03125 "/></g></g></g><g fill="#000000" fill-opacity="1"><g transform="translate(72.159557, 16.152411)"><g><path d="M 0.59375 0 L 0.59375 -5.03125 L 2.328125 -5.03125 L 2.328125 -4.5 L 2.34375 -4.5 C 2.789062 -4.957031 3.269531 -5.1875 3.78125 -5.1875 C 4.03125 -5.1875 4.273438 -5.148438 4.515625 -5.078125 C 4.765625 -5.015625 5.003906 -4.914062 5.234375 -4.78125 C 5.460938 -4.644531 5.644531 -4.445312 5.78125 -4.1875 C 5.925781 -3.9375 6 -3.644531 6 -3.3125 L 6 0 L 4.265625 0 L 4.265625 -2.84375 C 4.265625 -3.101562 4.179688 -3.332031 4.015625 -3.53125 C 3.847656 -3.726562 3.628906 -3.828125 3.359375 -3.828125 C 3.097656 -3.828125 2.859375 -3.722656 2.640625 -3.515625 C 2.429688 -3.316406 2.328125 -3.09375 2.328125 -2.84375 L 2.328125 0 Z M 0.59375 0 "/></g></g></g><g fill="#000000" fill-opacity="1"><g transform="translate(78.649085, 16.152411)"><g><path d="M 0.359375 1.234375 L 1.78125 0.546875 C 2.039062 0.972656 2.5 1.1875 3.15625 1.1875 C 3.445312 1.1875 3.722656 1.085938 3.984375 0.890625 C 4.242188 0.703125 4.375 0.410156 4.375 0.015625 L 4.375 -0.359375 C 4.070312 -0.0234375 3.523438 0.140625 2.734375 0.140625 C 2.003906 0.140625 1.398438 -0.113281 0.921875 -0.625 C 0.453125 -1.132812 0.21875 -1.757812 0.21875 -2.5 C 0.21875 -3.25 0.453125 -3.882812 0.921875 -4.40625 C 1.398438 -4.925781 2.003906 -5.1875 2.734375 -5.1875 C 3.378906 -5.1875 3.914062 -4.984375 4.34375 -4.578125 L 4.375 -4.578125 L 4.375 -5.03125 L 6.109375 -5.03125 L 6.109375 0.140625 C 6.109375 0.953125 5.835938 1.582031 5.296875 2.03125 C 4.753906 2.476562 4.039062 2.703125 3.15625 2.703125 C 1.707031 2.703125 0.773438 2.210938 0.359375 1.234375 Z M 2.40625 -3.359375 C 2.1875 -3.140625 2.078125 -2.851562 2.078125 -2.5 C 2.078125 -2.15625 2.179688 -1.875 2.390625 -1.65625 C 2.609375 -1.4375 2.894531 -1.328125 3.25 -1.328125 C 3.59375 -1.328125 3.875 -1.4375 4.09375 -1.65625 C 4.3125 -1.882812 4.421875 -2.171875 4.421875 -2.515625 C 4.421875 -2.859375 4.304688 -3.140625 4.078125 -3.359375 C 3.847656 -3.585938 3.570312 -3.703125 3.25 -3.703125 C 2.914062 -3.703125 2.632812 -3.585938 2.40625 -3.359375 Z M 2.40625 -3.359375 "/></g></g></g></svg>